G75*
%MOIN*%
%OFA0B0*%
%FSLAX25Y25*%
%IPPOS*%
%LPD*%
%AMOC8*
5,1,8,0,0,1.08239X$1,22.5*
%
%ADD10R,0.06299X0.07874*%
%ADD11OC8,0.10000*%
%ADD12R,0.04724X0.04724*%
%ADD13C,0.03937*%
%ADD14C,0.07874*%
%ADD15C,0.11811*%
%ADD16C,0.15748*%
%ADD17C,0.19685*%
%ADD18C,0.05600*%
%ADD19C,0.06600*%
D10*
X0251394Y0015541D03*
X0262417Y0015541D03*
D11*
X0276591Y0015541D03*
X0197850Y0015541D03*
D12*
X0233087Y0019478D03*
X0241354Y0019478D03*
X0241354Y0011604D03*
X0233087Y0011604D03*
D13*
X0044307Y0035226D02*
X0042339Y0037194D01*
X0042339Y0043100D01*
X0042339Y0045068D01*
X0042339Y0434832D01*
X0048244Y0434832D01*
X0048244Y0045068D01*
X0054150Y0045068D01*
X0054150Y0434832D01*
X0060055Y0434832D01*
X0060055Y0045068D01*
X0065961Y0045068D01*
X0065961Y0434832D01*
X0071866Y0434832D01*
X0071866Y0045068D01*
X0077772Y0045068D01*
X0077772Y0434832D01*
X0083677Y0434832D01*
X0083677Y0045068D01*
X0089583Y0045068D01*
X0089583Y0434832D01*
X0095488Y0434832D01*
X0095488Y0045068D01*
X0101394Y0045068D01*
X0101394Y0434832D01*
X0107299Y0434832D01*
X0107299Y0045068D01*
X0113205Y0045068D01*
X0113205Y0434832D01*
X0119110Y0434832D01*
X0119110Y0045068D01*
X0125016Y0045068D01*
X0125016Y0434832D01*
X0130921Y0434832D01*
X0130921Y0045068D01*
X0136827Y0045068D01*
X0136827Y0434832D01*
X0142732Y0434832D01*
X0142732Y0045068D01*
X0148638Y0045068D01*
X0148638Y0434832D01*
X0154543Y0434832D01*
X0154543Y0045068D01*
X0160449Y0045068D01*
X0160449Y0434832D01*
X0166354Y0434832D01*
X0166354Y0045068D01*
X0172260Y0045068D01*
X0172260Y0434832D01*
X0178165Y0434832D01*
X0178165Y0045068D01*
X0184071Y0045068D01*
X0184071Y0434832D01*
X0189976Y0434832D01*
X0189976Y0045068D01*
X0195882Y0045068D01*
X0195882Y0434832D01*
X0201787Y0434832D01*
X0201787Y0045068D01*
X0207693Y0045068D01*
X0207693Y0434832D01*
X0213598Y0434832D01*
X0213598Y0045068D01*
X0219504Y0045068D01*
X0219504Y0434832D01*
X0225409Y0434832D01*
X0225409Y0045068D01*
X0231315Y0045068D01*
X0231315Y0434832D01*
X0237220Y0434832D01*
X0237220Y0045068D01*
X0243126Y0045068D01*
X0243126Y0434832D01*
X0249031Y0434832D01*
X0249031Y0045068D01*
X0254937Y0045068D01*
X0254937Y0434832D01*
X0260843Y0434832D01*
X0260843Y0045068D01*
X0266748Y0045068D01*
X0266748Y0434832D01*
X0272654Y0434832D01*
X0272654Y0045068D01*
X0278559Y0045068D01*
X0278559Y0434832D01*
X0284465Y0434832D01*
X0284465Y0045068D01*
X0290370Y0045068D01*
X0290370Y0434832D01*
X0296276Y0434832D01*
X0296276Y0045068D01*
X0302181Y0045068D01*
X0302181Y0434832D01*
X0308087Y0434832D01*
X0308087Y0045068D01*
X0313992Y0045068D01*
X0313992Y0434832D01*
X0319898Y0434832D01*
X0319898Y0045068D01*
X0325803Y0045068D01*
X0325803Y0434832D01*
X0331709Y0434832D01*
X0331709Y0045068D01*
X0337614Y0045068D01*
X0337614Y0434832D01*
X0343520Y0434832D01*
X0343520Y0045068D01*
X0349425Y0045068D01*
X0349425Y0434832D01*
X0355331Y0434832D01*
X0355331Y0045068D01*
X0361236Y0045068D01*
X0361236Y0434832D01*
X0367142Y0434832D01*
X0367142Y0045068D01*
X0373047Y0045068D01*
X0373047Y0434832D01*
X0378953Y0434832D01*
X0378953Y0045068D01*
X0384858Y0045068D01*
X0384858Y0434832D01*
X0390764Y0434832D01*
X0390764Y0045068D01*
X0396669Y0045068D01*
X0396669Y0434832D01*
X0402575Y0434832D01*
X0402575Y0045068D01*
X0408480Y0045068D01*
X0408480Y0434832D01*
X0414386Y0434832D01*
X0414386Y0045068D01*
X0420291Y0045068D01*
X0420291Y0434832D01*
X0426197Y0434832D01*
X0426197Y0045068D01*
X0432102Y0045068D01*
X0432102Y0434832D01*
X0439976Y0434832D01*
X0441945Y0432864D01*
X0241354Y0019478D02*
X0241354Y0011604D01*
X0241354Y0015541D01*
X0251394Y0015541D01*
X0233087Y0015541D02*
X0233087Y0011604D01*
X0233087Y0019478D01*
X0233087Y0015541D02*
X0227378Y0015541D01*
D14*
X0048244Y0031289D02*
X0044307Y0035226D01*
X0441945Y0432864D02*
X0445882Y0428927D01*
D15*
X0449819Y0424989D01*
X0052181Y0027352D02*
X0048244Y0031289D01*
D16*
X0052181Y0027352D02*
X0056118Y0023415D01*
X0453756Y0421052D02*
X0449819Y0424989D01*
D17*
X0453756Y0421052D02*
X0461630Y0413178D01*
X0461630Y0015541D01*
X0276591Y0015541D01*
X0197850Y0015541D02*
X0063992Y0015541D01*
X0056118Y0023415D01*
D18*
X0262417Y0015541D02*
X0276591Y0015541D01*
D19*
X0227378Y0015541D02*
X0197850Y0015541D01*
M02*
